<svg width="774" height="586" viewBox="0 0 774 586" fill="none" xmlns="http://www.w3.org/2000/svg">
<path d="M366.322 314.95H280.563V372.059H366.322V314.95Z" fill="#D1D3D4"/>
<path d="M535.553 314.427C535.553 320.72 530.554 325.867 524.446 325.867H122.439C116.332 325.867 111.333 320.72 111.333 314.427V11.4389C111.333 5.14805 116.332 0 122.439 0H524.446C530.554 0 535.553 5.14805 535.553 11.4389V314.427Z" fill="#D1D3D4"/>
<path d="M524.446 0H122.439C116.332 0 111.333 5.14805 111.333 11.4389V269.639L535.554 268.994V11.4389C535.553 5.14805 530.554 0 524.446 0Z" fill="#0F142B"/>
<path d="M521.577 15.0264H125.309V252.882H521.577V15.0264Z" fill="#E6E7E8"/>
<path d="M383.496 366.546H263.388V387.669H383.496V366.546Z" fill="#D1D3D4"/>
<path opacity="0.1" d="M366.322 327.062H280.563V340.832H366.322V327.062Z" fill="black"/>
<path d="M333.767 295.419C333.767 301.292 329.144 306.053 323.443 306.053C317.74 306.053 313.118 301.293 313.118 295.419C313.118 289.546 317.74 284.785 323.443 284.785C329.144 284.784 333.767 289.545 333.767 295.419Z" fill="#0F142B"/>
<path d="M521.577 15.0264H125.309V41.6497H521.577V15.0264Z" fill="white"/>
<path d="M479.252 28.3381C479.252 31.8126 476.517 34.6289 473.144 34.6289C469.77 34.6289 467.036 31.8126 467.036 28.3381C467.036 24.8636 469.77 22.0472 473.144 22.0472C476.516 22.0472 479.252 24.8644 479.252 28.3381Z" fill="#E6E7E8"/>
<path d="M496.48 28.3381C496.48 31.8126 493.745 34.6289 490.372 34.6289C486.997 34.6289 484.263 31.8126 484.263 28.3381C484.263 24.8636 486.997 22.0472 490.372 22.0472C493.744 22.0472 496.48 24.8644 496.48 28.3381Z" fill="#E6E7E8"/>
<path d="M514.489 28.3381C514.489 31.8126 511.755 34.6289 508.381 34.6289C505.008 34.6289 502.274 31.8126 502.274 28.3381C502.274 24.8636 505.008 22.0472 508.381 22.0472C511.754 22.0472 514.489 24.8644 514.489 28.3381Z" fill="#E6E7E8"/>
<path d="M260.529 92.9124C260.541 92.8635 260.548 92.8113 260.548 92.7495L260.529 92.9124Z" fill="#716558"/>
<path d="M282.289 138.456L282.288 138.46L287.154 139.411L287.155 139.407L282.289 138.456Z" fill="#9A8379"/>
<path d="M220.811 56.001H183.224V67.8255H220.811V56.001Z" fill="#69C8F2"/>
<path d="M279.324 84.3221H241.737V96.1466H279.324V84.3221Z" fill="#69C8F2"/>
<path d="M220.811 84.3221H183.224V96.1466H220.811V84.3221Z" fill="#EF3A50"/>
<path d="M220.811 112.642H183.224V124.468H220.811V112.642Z" fill="#69C8F2"/>
<path d="M336.704 112.642H241.755V124.468H336.704V112.642Z" fill="#7AC9AC"/>
<path d="M393.711 140.964H298.761V152.79H393.711V140.964Z" fill="#7AC9AC"/>
<path d="M265.915 56.001H234.782V67.8255H265.915V56.001Z" fill="#7AC9AC"/>
<path d="M354.913 169.285H259.964V181.11H354.913V169.285Z" fill="#7AC9AC"/>
<path d="M334.598 197.606H239.649V209.43H334.598V197.606Z" fill="#EF3A50"/>
<path d="M402.418 195.088H354.943V206.913H402.418V195.088Z" fill="#EF3A50"/>
<path d="M456.605 195.088H409.13V206.913H456.605V195.088Z" fill="#EF3A50"/>
<path d="M449.893 226.341H354.943V238.167H449.893V226.341Z" fill="#7AC9AC"/>
<path d="M279.323 140.964H183.224V152.79H279.323V140.964Z" fill="#EF3A50"/>
<path d="M241.755 169.285H183.224V181.11H241.755V169.285Z" fill="#69C8F2"/>
<path d="M220.811 197.606H183.224V209.43H220.811V197.606Z" fill="#7AC9AC"/>
<path d="M336.704 225.927H183.224V237.752H336.704V225.927Z" fill="#69C8F2"/>
<path d="M497.452 5.45049C494.263 1.93243 488.788 0.112098 481.737 0.0161216V0C481.663 0.000806524 481.594 0.00724198 481.519 0.0080485C481.445 0.00724198 481.376 0 481.301 0L481.302 0.0161216C474.256 0.112098 468.899 1.93243 465.708 5.45049C462.756 8.70723 462.602 12.2817 462.621 13.256V56.0018H470.428V13.2109L470.419 12.9479C470.419 12.9407 470.527 11.918 471.415 10.9373C473.093 9.08711 476.704 8.05877 481.582 8.04183C490.198 8.07329 492.636 11.1373 492.734 13.0068V56.0018H500.541V13.256C500.558 12.2817 500.404 8.70723 497.452 5.45049Z" fill="#0F142B"/>
<path d="M490.975 31.7617C487.978 30.9358 484.83 30.4922 481.581 30.4922C461.562 30.4922 445.333 47.2074 445.333 67.8262C445.333 82.5832 453.645 95.3392 465.711 101.4C470.505 103.808 475.888 105.161 481.581 105.161C501.599 105.161 517.829 88.4458 517.829 67.827C517.829 50.5545 506.44 36.025 490.975 31.7617ZM481.581 54.8985C486.477 54.8985 490.445 58.9867 490.445 64.0291C490.445 67.8593 488.152 71.1346 484.904 72.4904V84.9092H478.256V72.4904C475.008 71.1346 472.716 67.8601 472.716 64.0291C472.716 58.9867 476.684 54.8985 481.581 54.8985Z" fill="#FFC54E"/>
<path opacity="0.1" d="M490.975 31.7617C503.041 37.8227 511.354 50.5787 511.354 65.3357C511.354 85.9545 495.125 102.67 475.107 102.67C471.858 102.67 468.708 102.227 465.711 101.4C470.505 103.808 475.888 105.161 481.581 105.161C501.599 105.161 517.829 88.4458 517.829 67.827C517.829 50.5545 506.44 36.025 490.975 31.7617Z" fill="#231F20"/>
<path d="M270.462 377.145C270.462 382.022 266.588 386.012 261.853 386.012H31.1133C26.3781 386.012 22.5043 382.022 22.5043 377.145V203.952C22.5043 199.076 26.3781 195.086 31.1133 195.086H261.853C266.588 195.086 270.462 199.076 270.462 203.952V377.145Z" fill="#0F142B"/>
<path d="M257.04 207.546H35.9267V356.419H257.04V207.546Z" fill="white"/>
<path d="M287.059 368.589H175.579V372.443H117.388V368.589H5.9074H0V374.674V377.301V379.927C0 383.274 2.65927 386.012 5.9074 386.012H287.059C290.308 386.012 292.966 383.274 292.966 379.927V377.301V374.674V368.589H287.059Z" fill="#F58120"/>
<path d="M92.6248 229.48H56.9174V243.997H92.6248V229.48Z" fill="#2BB673"/>
<path d="M92.6248 264.967H56.9174V295.529H92.6248V264.967Z" fill="#2BB673"/>
<path d="M210.417 264.967H174.71V295.529H210.417V264.967Z" fill="#2BB673"/>
<path d="M137.813 229.48H102.105V243.997H137.813V229.48Z" fill="#2BB673"/>
<path d="M137.813 264.967H102.105V279.484H137.813V264.967Z" fill="#2BB673"/>
<path d="M212.12 316.5H176.412V331.017H212.12V316.5Z" fill="#2BB673"/>
<path d="M240.042 229.48H156.68V243.997H240.042V229.48Z" fill="#2BB673"/>
<path d="M194.266 243.997H190.861V264.967H194.266V243.997Z" fill="#2BB673"/>
<path d="M195.968 295.529H192.563V316.5H195.968V295.529Z" fill="#2BB673"/>
<path d="M76.4735 243.997H73.0688V264.967H76.4735V243.997Z" fill="#2BB673"/>
<path d="M121.662 243.997H118.257V264.967H121.662V243.997Z" fill="#2BB673"/>
<path d="M157.367 234.985H137.008V238.492H157.367V234.985Z" fill="#2BB673"/>
<path d="M107.331 272.225H86.9712V275.732H107.331V272.225Z" fill="#2BB673"/>
<path d="M529.939 218.944L534.648 214.094L522.519 201.601L517.356 206.92C514.072 204.963 510.483 203.493 506.677 202.601V195.086H489.524V202.601C484.892 203.685 480.577 205.623 476.747 208.255L471.706 203.063L459.578 215.555L464.945 221.082C462.942 224.563 461.445 228.387 460.548 232.446H453.252V250.112H460.548C461.466 254.266 463.008 258.173 465.08 261.719L458.531 268.465L470.659 280.957L476.975 274.452C480.748 277.007 484.984 278.893 489.525 279.958V287.473H506.677V279.958C510.705 279.013 514.498 277.428 517.937 275.295L523.433 280.957L535.563 268.465L530.303 263.048C532.786 259.158 534.619 254.794 535.654 250.112H543.09V232.446H535.654C534.568 227.538 532.609 222.973 529.939 218.944ZM498.17 269.951C482.797 269.951 470.333 257.114 470.333 241.279C470.333 225.445 482.797 212.607 498.17 212.607C513.545 212.607 526.009 225.445 526.009 241.279C526.009 257.114 513.545 269.951 498.17 269.951Z" fill="#0F142B"/>
<path d="M498.17 262.131C509.351 262.131 518.416 252.795 518.416 241.279C518.416 229.763 509.351 220.427 498.17 220.427C486.989 220.427 477.925 229.763 477.925 241.279C477.925 252.795 486.989 262.131 498.17 262.131Z" fill="#0F142B"/>
<path d="M486.119 298.509L488.623 295.93L482.173 289.287L479.426 292.115C477.679 291.074 475.77 290.292 473.747 289.818V285.821H464.624V289.818C462.16 290.395 459.866 291.425 457.829 292.825L455.148 290.064L448.697 296.708L451.552 299.647C450.487 301.498 449.689 303.532 449.213 305.691H445.333V315.086H449.213C449.701 317.295 450.521 319.373 451.624 321.259L448.14 324.846L454.59 331.49L457.949 328.031C459.956 329.39 462.209 330.393 464.623 330.959V334.955H473.746V330.959C475.888 330.457 477.905 329.613 479.735 328.479L482.657 331.49L489.108 324.846L486.31 321.965C487.632 319.897 488.606 317.576 489.156 315.086H493.112V305.691H489.156C488.581 303.079 487.539 300.652 486.119 298.509ZM469.223 325.637C461.046 325.637 454.418 318.81 454.418 310.388C454.418 301.966 461.046 295.139 469.223 295.139C477.399 295.139 484.027 301.966 484.027 310.388C484.027 318.81 477.399 325.637 469.223 325.637Z" fill="#0F142B"/>
<path d="M469.223 299.298C463.276 299.298 458.456 304.263 458.456 310.388C458.456 316.513 463.276 321.477 469.223 321.477C475.17 321.477 479.99 316.512 479.99 310.388C479.99 304.263 475.17 299.298 469.223 299.298Z" fill="#0F142B"/>
<path d="M528.341 300.068L529.812 298.553L526.023 294.65L524.409 296.312C523.383 295.7 522.262 295.24 521.072 294.962V292.614H515.714V294.962C514.267 295.301 512.919 295.906 511.722 296.729L510.147 295.106L506.358 299.009L508.035 300.735C507.409 301.822 506.941 303.018 506.661 304.285H504.381V309.804H506.661C506.947 311.101 507.43 312.323 508.077 313.43L506.031 315.537L509.821 319.439L511.794 317.407C512.973 318.205 514.296 318.795 515.715 319.127V321.475H521.073V319.127C522.331 318.832 523.517 318.336 524.591 317.671L526.308 319.439L530.097 315.536L528.454 313.844C529.229 312.629 529.803 311.265 530.125 309.803H532.449V304.284H530.125C529.787 302.753 529.175 301.327 528.341 300.068ZM518.415 316.004C513.612 316.004 509.719 311.994 509.719 307.046C509.719 302.1 513.613 298.089 518.415 298.089C523.219 298.089 527.113 302.1 527.113 307.046C527.113 311.994 523.219 316.004 518.415 316.004Z" fill="#0F142B"/>
<path d="M519.854 313.341C523.254 312.518 525.362 309.011 524.562 305.509C523.762 302.007 520.357 299.836 516.957 300.659C513.557 301.483 511.449 304.99 512.249 308.492C513.049 311.994 516.453 314.165 519.854 313.341Z" fill="#0F142B"/>
<path d="M333.438 473.787C333.438 476.226 331.5 478.221 329.133 478.221H115.638C113.271 478.221 111.333 476.226 111.333 473.787V394.605C111.333 392.167 113.271 390.171 115.638 390.171H329.133C331.5 390.171 333.438 392.167 333.438 394.605V473.787Z" fill="#F1F2F2"/>
<path d="M327.698 396.809H117.072V471.585H327.698V396.809Z" fill="#D1D3D4"/>
<path d="M131.631 399.834H120.009V411.804H131.631V399.834Z" fill="white"/>
<path d="M150.914 399.834H139.292V411.804H150.914V399.834Z" fill="white"/>
<path d="M170.197 399.834H158.576V411.804H170.197V399.834Z" fill="white"/>
<path d="M189.481 399.834H177.86V411.804H189.481V399.834Z" fill="white"/>
<path d="M208.765 399.834H197.143V411.804H208.765V399.834Z" fill="white"/>
<path d="M228.047 399.834H216.426V411.804H228.047V399.834Z" fill="white"/>
<path d="M247.332 399.834H235.71V411.804H247.332V399.834Z" fill="white"/>
<path d="M266.615 399.834H254.993V411.804H266.615V399.834Z" fill="white"/>
<path d="M285.898 399.834H274.277V411.804H285.898V399.834Z" fill="white"/>
<path d="M305.182 399.834H293.56V411.804H305.182V399.834Z" fill="white"/>
<path d="M324.465 399.834H312.844V411.804H324.465V399.834Z" fill="white"/>
<path d="M131.68 418.749H120.059V430.72H131.68V418.749Z" fill="white"/>
<path d="M150.963 418.749H139.342V430.72H150.963V418.749Z" fill="white"/>
<path d="M170.247 418.749H158.625V430.72H170.247V418.749Z" fill="white"/>
<path d="M189.53 418.749H177.908V430.72H189.53V418.749Z" fill="white"/>
<path d="M208.814 418.749H197.193V430.72H208.814V418.749Z" fill="white"/>
<path d="M228.097 418.749H216.476V430.72H228.097V418.749Z" fill="white"/>
<path d="M247.38 418.749H235.759V430.72H247.38V418.749Z" fill="white"/>
<path d="M266.664 418.749H255.042V430.72H266.664V418.749Z" fill="white"/>
<path d="M285.948 418.749H274.326V430.72H285.948V418.749Z" fill="white"/>
<path d="M305.232 418.749H293.61V430.72H305.232V418.749Z" fill="white"/>
<path d="M324.515 418.749H312.893V430.72H324.515V418.749Z" fill="white"/>
<path d="M131.73 437.665H120.107V449.634H131.73V437.665Z" fill="white"/>
<path d="M151.013 437.665H139.391V449.634H151.013V437.665Z" fill="white"/>
<path d="M170.296 437.665H158.675V449.634H170.296V437.665Z" fill="white"/>
<path d="M189.58 437.665H177.958V449.634H189.58V437.665Z" fill="white"/>
<path d="M208.863 437.665H197.242V449.634H208.863V437.665Z" fill="white"/>
<path d="M228.146 437.665H216.525V449.634H228.146V437.665Z" fill="white"/>
<path d="M247.43 437.665H235.808V449.634H247.43V437.665Z" fill="white"/>
<path d="M266.714 437.665H255.092V449.634H266.714V437.665Z" fill="white"/>
<path d="M305.281 437.665H293.659V449.634H305.281V437.665Z" fill="white"/>
<path d="M131.779 456.58H120.158V468.551H131.779V456.58Z" fill="white"/>
<path d="M151.063 456.58H139.44V468.551H151.063V456.58Z" fill="white"/>
<path d="M216.575 456.58L216.426 456.801V456.58H197.29H178.007H158.724V468.551H178.007H197.29H208.54H216.426H228.196V456.58H216.575Z" fill="white"/>
<path d="M247.479 456.58H235.858V468.551H247.479V456.58Z" fill="white"/>
<path d="M266.763 456.58H255.141V468.551H266.763V456.58Z" fill="white"/>
<path d="M286.046 456.58H274.425V468.551H286.046V456.58Z" fill="white"/>
<path d="M305.33 456.58H293.708V468.551H305.33V456.58Z" fill="white"/>
<path d="M324.613 456.58H312.992V468.551H324.613V456.58Z" fill="white"/>
<path d="M266.069 491.522H232.491V508.006H266.069V491.522Z" fill="#07162C"/>
<path d="M222.669 419.591C222.669 417.252 224.511 415.355 226.782 415.355C229.054 415.355 230.895 417.252 230.895 419.591H230.897V431.113H234.975V412.635H234.977C234.977 410.296 236.819 408.398 239.09 408.398C241.361 408.398 243.203 410.295 243.203 412.635H243.205V431.113H247.284V406.181H247.286C247.286 403.841 249.127 401.944 251.399 401.944C253.671 401.944 255.512 403.841 255.512 406.181H255.515V431.113H259.519V394.512H259.531C259.531 394.476 259.521 394.443 259.521 394.408C259.521 392.067 261.363 390.171 263.635 390.171C265.906 390.171 267.747 392.066 267.747 394.408C267.747 394.443 267.737 394.476 267.736 394.512H267.75V453.617L273.59 450.83V439.613C263.913 430.996 271.226 425.688 271.226 425.688L282.727 434.875V468.257L266.068 491.523H232.492L222.667 469.522V445.978V419.591H222.669Z" fill="#FFE373"/>
<path d="M384.238 491.522H350.66V508.006H384.238V491.522Z" fill="#07162C"/>
<path d="M394.06 419.592C394.06 417.252 392.219 415.355 389.947 415.355C387.676 415.355 385.834 417.252 385.834 419.592H385.831V431.113H381.753V412.636H381.751C381.751 410.295 379.909 408.398 377.638 408.398C375.367 408.398 373.525 410.295 373.525 412.636H373.523V431.113H369.444V406.181H369.442C369.442 403.842 367.6 401.944 365.329 401.944C363.057 401.944 361.215 403.841 361.215 406.181H361.213V431.113H357.208V394.513H357.196C357.197 394.476 357.206 394.443 357.206 394.407C357.206 392.068 355.365 390.171 353.093 390.171C350.822 390.171 348.981 392.068 348.981 394.407C348.981 394.443 348.99 394.476 348.991 394.513H348.978V453.617L343.137 450.831V439.613C352.815 430.996 345.502 425.689 345.502 425.689L334 434.876V468.258L350.659 491.523H384.236L394.061 469.522V445.979V419.593L394.06 419.592Z" fill="#FFE373"/>
<path d="M472.483 390.171H465.249H462.85H455.618C449.961 390.171 445.334 394.938 445.334 400.764V447.793C445.334 453.619 449.961 458.387 455.618 458.387H472.484C478.141 458.387 482.768 453.619 482.768 447.793V400.764C482.767 394.938 478.14 390.171 472.483 390.171Z" fill="#D1D3D4"/>
<path opacity="0.1" d="M472.483 390.171H455.617C449.96 390.171 445.333 394.938 445.333 400.764V418.418H482.767V400.764C482.767 394.938 478.14 390.171 472.483 390.171Z" fill="#231F20"/>
<path d="M465.849 412.557C465.849 413.722 465.04 414.675 464.05 414.675C463.059 414.675 462.25 413.722 462.25 412.557V406.414C462.25 405.248 463.059 404.294 464.05 404.294C465.04 404.294 465.849 405.248 465.849 406.414V412.557Z" fill="white"/>
<path opacity="0.2" d="M482.767 418.418V400.764C482.767 394.938 478.14 390.171 472.484 390.171H464.051V418.418H482.767Z" fill="#231F20"/>
<path d="M773.478 536.503C773.478 541.826 769.25 546.181 764.081 546.181H566.063C560.895 546.181 556.667 541.826 556.667 536.503V399.849C556.667 394.526 560.895 390.171 566.063 390.171H764.081C769.25 390.171 773.478 394.526 773.478 399.849V536.503Z" fill="white"/>
<path d="M764.081 390.171H566.063C560.895 390.171 556.667 394.526 556.667 399.849V411.104H773.478V399.849C773.478 394.526 769.25 390.171 764.081 390.171Z" fill="#D1D3D4"/>
<path d="M610.198 482.451V473.533L644.068 454.817V466.478L620.664 477.943L644.068 489.506V501.168L610.198 482.451Z" fill="#AADFED"/>
<path d="M680.03 441.881L659.195 514.102H649.299L670.041 441.881H680.03Z" fill="#AADFED"/>
<path d="M685.263 501.168V489.506L708.668 477.943L685.263 466.478V454.817L719.132 473.533V482.451L685.263 501.168Z" fill="#AADFED"/>
<path d="M717.503 407.029C720.877 407.029 723.611 404.212 723.611 400.738C723.611 397.264 720.877 394.447 717.503 394.447C714.13 394.447 711.396 397.264 711.396 400.738C711.396 404.212 714.13 407.029 717.503 407.029Z" fill="#FAF071"/>
<path d="M734.731 407.029C738.104 407.029 740.839 404.212 740.839 400.738C740.839 397.264 738.104 394.447 734.731 394.447C731.357 394.447 728.623 397.264 728.623 400.738C728.623 404.212 731.357 407.029 734.731 407.029Z" fill="#EE1E3B"/>
<path d="M752.741 407.029C756.114 407.029 758.849 404.212 758.849 400.738C758.849 397.264 756.114 394.447 752.741 394.447C749.368 394.447 746.633 397.264 746.633 400.738C746.633 404.212 749.368 407.029 752.741 407.029Z" fill="#4993CF"/>
</svg>
